<?xml version="1.0" encoding="UTF-8"?>
<svg width="137px" height="29px" viewBox="0 0 137 29" version="1.1" xmlns="http://www.w3.org/2000/svg" xmlns:xlink="http://www.w3.org/1999/xlink">
    <!-- Generator: Sketch 51.2 (57519) - http://www.bohemiancoding.com/sketch -->
    <title>tola_activity_white</title>
    <desc>Created with Sketch.</desc>
    <defs></defs>
    <g id="Page-1" stroke="none" stroke-width="1" fill="none" fill-rule="evenodd">
        <g id="TolaData_White" fill="#FFFFFF" fill-rule="nonzero">
            <polygon id="Path" points="11.3 7.3 11.3 27.7 5.5 27.7 5.5 7.3 0 7.3 0 2.3 16.8 2.3 16.8 7.2 11.3 7.2"></polygon>
            <path d="M32.8,25.5 C30.8,27.3 28.1,28.3 25.4,28.2 C22.7,28.3 20,27.3 18,25.5 C14.6,22 14.6,16.4 18,12.9 C20,11.1 22.7,10.1 25.4,10.2 C28.1,10.1 30.8,11.1 32.8,12.9 C36.2,16.4 36.2,22 32.8,25.5 L32.8,25.5 Z M22.3,16 C21.5,16.8 21,18 21.1,19.2 C21.1,20.4 21.5,21.6 22.3,22.4 C23.1,23.2 24.3,23.7 25.4,23.6 C26.5,23.6 27.6,23.2 28.4,22.4 C29.2,21.6 29.7,20.4 29.6,19.2 C29.7,18 29.2,16.9 28.4,16 C26.7,14.4 24,14.4 22.3,16 Z" id="Shape"></path>
            <polygon id="Path" points="43.8 1.77635684e-15 43.8 27.7 38.3 27.7 38.3 1.77635684e-15"></polygon>
            <path d="M60.7,10.7 L66.2,10.7 L66.2,27.7 L60.7,27.7 L60.7,25.6 C59.6,27.3 57.7,28.3 55.7,28.2 C53.3,28.3 51,27.4 49.4,25.6 C47.8,23.9 46.9,21.6 46.9,19.3 C46.8,16.8 47.8,14.3 49.5,12.5 C51.1,11 53.2,10.1 55.4,10.2 C57.5,10.1 59.5,11 60.7,12.7 L60.7,10.7 Z M53.7,16.1 C52.9,16.9 52.4,18 52.5,19.2 C52.5,20.3 52.9,21.4 53.6,22.2 C54.5,23.1 55.6,23.5 56.8,23.5 C57.9,23.5 58.9,23.1 59.6,22.3 C61.4,20.6 61.4,17.8 59.7,16 C58.9,15.3 57.8,14.8 56.7,14.8 C55.6,14.8 54.5,15.3 53.7,16.1 L53.7,16.1 Z" id="Shape"></path>
            <path d="M71.5,2.3 L76.7,2.3 C80.1,2.1 83.4,3.2 86,5.3 C88.8,7.7 90.4,11.3 90.3,15 C90.4,18.8 88.8,22.4 85.9,24.7 C83.6,26.7 81.1,27.6 76.6,27.6 L71.5,27.6 L71.5,2.3 Z M74.3,25 L76.8,25 C79.4,25.1 82,24.3 84.1,22.7 C86.4,20.8 87.6,17.9 87.5,15 C87.5,8.9 83.3,5 76.8,5 L74.3,5 L74.3,25 Z" id="Shape"></path>
            <path d="M105.8,11.9 L108.5,11.9 L108.5,27.7 L105.8,27.7 L105.8,25.5 C104.5,27.2 102.5,28.2 100.4,28.2 C96.4,28.2 92.7,25.4 92.7,19.8 C92.7,14.2 96.3,11.6 100.4,11.6 C102.5,11.5 104.5,12.5 105.8,14.2 L105.8,11.9 Z M95.5,19.8 C95.5,23.2 97.4,25.7 100.7,25.7 C104,25.7 106,22.9 106,19.8 C106,15.7 103.2,13.9 100.8,13.9 C98,14 95.5,15.9 95.5,19.8 Z" id="Shape"></path>
            <polygon id="Path" points="116.5 14.4 116.5 27.7 113.8 27.7 113.8 14.4 112.1 14.4 112.1 11.9 113.8 11.9 113.8 6.2 116.5 6.2 116.5 11.9 119.2 11.9 119.2 14.4"></polygon>
            <path d="M133.9,11.9 L136.6,11.9 L136.6,27.7 L133.9,27.7 L133.9,25.5 C132.6,27.2 130.6,28.2 128.5,28.2 C124.5,28.2 120.8,25.4 120.8,19.8 C120.8,14.2 124.4,11.6 128.5,11.6 C130.6,11.5 132.6,12.5 133.9,14.2 L133.9,11.9 Z M123.7,19.8 C123.7,23.2 125.6,25.7 128.9,25.7 C132.2,25.7 134.1,22.9 134.1,19.8 C134.1,15.7 131.3,13.9 128.9,13.9 C126.1,14 123.7,15.9 123.7,19.8 Z" id="Shape"></path>
        </g>
    </g>
</svg>